<svg id="图层_1" enable-background="new 0 0 156 156" height="512" viewBox="0 0 156 156" width="512" xmlns="http://www.w3.org/2000/svg"><path d="m78.66 46.19c-.09.14.02 2.68.24 5.67s.4 5.5.4 5.59c0 .1-3.59.26-7.99.36-4.39.1-8.58.25-9.31.33-1.25.14-1.32.12-1.19-.4.11-.43.03-.55-.38-.55-.31 0-.59.21-.68.5-.1.31-.46.55-.97.63-2.74.44-13.11 1.2-27.24 1.98-5.67.32-6.43.5-6 1.46.19.44 1.34 13.54 1.98 22.64.22 3.12.47 5.84.56 6.08s1.39 1.11 2.9 1.93c3.47 1.9 5.52 3.21 6.52 4.18.77.74.84.76 2.71.61 1.06-.08 3.58-.22 5.62-.3 8.97-.35 24.55-1.66 30.53-2.56 1.41-.21 3.03-.45 3.6-.52l1.05-.14.43 4.23c.43 4.22.43 4.23-.1 4.77-.68.68-.67 1.16.08 1.86 1.12 1.07 6.61 5.42 6.92 5.5.17.04 1.57-.98 3.1-2.26 1.54-1.28 6.42-4.76 10.85-7.72 4.42-2.95 10.29-7.06 13.03-9.12 2.73-2.05 6.74-4.99 8.87-6.5 6.41-4.55 7.45-5.86 5.47-6.85-.56-.28-1.03-.79-1.33-1.46-.25-.57-.93-1.72-1.52-2.59-.78-1.15-.99-1.65-.78-1.85.15-.15.28-.57.28-.91 0-.57-.08-.61-.79-.46-.68.14-1.05-.02-2.61-1.16-2.92-2.13-11.98-7.95-15.12-9.71-1.79-1-2.94-1.81-3.03-2.13-.11-.38-.22-.43-.45-.2-.34.34-1.43-.16-6.49-3-1.69-.95-4.53-2.46-6.27-3.33s-3.34-1.82-3.53-2.08c-.25-.35-.52-.45-1.01-.35-.72.15-6.5-1.6-7.03-2.13-.35-.34-1.12-.37-1.32-.04zm3.61 2.61c.97.3 1.77.56 1.8.59s-.67 1.46-1.56 3.19l-1.61 3.14-.16-1c-.24-1.53-.51-6.46-.36-6.46.08 0 .92.24 1.89.54zm3.53 1.25c.08.14.04.29-.12.38-.14.08-.25-.03-.25-.23 0-.46.15-.52.37-.15zm1.29 1.74c-.26 1.7-2.46 9.15-4.65 15.76-2.05 6.18-2.24 6.67-5.22 13.59l-1.89 4.39-1.1.17c-.61.09-1.15.11-1.23.04-.07-.07.5-1.38 1.25-2.89 2.67-5.35 5.49-12.98 8.22-22.33 1.11-3.78 1.8-5.62 2.87-7.61 1.47-2.73 2.06-3.11 1.75-1.12zm3.8.43c3.12 1.59 8.33 4.5 8.33 4.65 0 .07-1.23 2.26-2.75 4.89s-4.1 7.4-5.76 10.64c-1.67 3.24-2.96 5.7-2.89 5.49s.77-1.99 1.56-3.96c2.33-5.8 5.24-14.73 5.3-16.27.05-1.2 0-1.36-.48-1.43-.62-.09-.91.31-2.91 4.06-.71 1.33-1.28 2.34-1.28 2.27s.35-1.23.77-2.56c.82-2.58 1.19-5.26.8-5.82-.64-.93-2.11 1.15-5.74 8.12-.98 1.89-1.73 3.22-1.65 2.94s.77-2.63 1.55-5.24c.77-2.61 1.62-5.67 1.88-6.83.26-1.15.59-2.11.74-2.11.16.01 1.31.53 2.53 1.16zm-7.74 2.31c-.25.84-.75 2.09-1.11 2.8-3.21 6.34-9.15 21.3-10.52 26.49l-.56 2.12-1.48.08c-1.43.07-1.48.06-1.3-.49.6-1.87 8.84-19.98 11.52-25.29.46-.92 1.04-1.76 1.27-1.85.26-.1.36-.33.27-.57-.14-.36 2.1-5.09 2.3-4.88.04.04-.13.75-.39 1.59zm7.37 3.87c-.91 3.27-4.11 11.85-6.56 17.58-1.27 2.96-2.68 6.31-3.15 7.47l-.86 2.11h-1.72-1.72l1.1-2.49c.61-1.38 1.84-4.43 2.77-6.83 2.46-6.41 6.62-15.02 9.61-19.93l.94-1.53.07.81c.04.45-.18 1.72-.48 2.81zm11.21-.25c.66.38 1.23.71 1.26.73.04.02-1.88 3.87-4.27 8.57-2.38 4.69-6.16 12.44-8.39 17.22-3.81 8.15-5.37 11.33-5.05 10.27 1.82-6.01 5.66-16.79 8.62-24.2 2.11-5.29 5.93-13.29 6.35-13.29.15.01.81.32 1.48.7zm-22.43.69c0 .04-1.02 2.2-2.26 4.78s-2.93 6.17-3.74 7.96-1.52 3.22-1.56 3.18c-.18-.18 5.81-14.97 6.35-15.69.21-.28 1.21-.47 1.21-.23zm-2.81.31c0 .07-.68 1.28-1.52 2.71-.84 1.42-3.84 7.17-6.69 12.79s-5.21 10.1-5.25 9.98c-.27-.82 5.37-15.53 8.22-21.44 1.53-3.17 1.99-3.91 2.49-4 .88-.18 2.75-.2 2.75-.04zm15.49 4.47c-2 5.98-3.59 10.09-7 18.09-2.52 5.93-3.02 6.91-3.08 6.16-.04-.49-.26-1.26-.49-1.69-.4-.78-.39-.84 1.31-4.85 3.38-7.97 4.89-11.3 7.66-16.84 1.54-3.07 2.84-5.47 2.89-5.31.06.15-.52 2.14-1.29 4.44zm-23.5.69c-3.33 4.98-7.07 11.5-10.13 17.65-.86 1.74-1.62 3.09-1.69 3.02-.22-.22 5.08-14.74 8.79-24.07l.51-1.28 1.62-.15c.89-.08 2.22-.17 2.95-.19l1.33-.04zm38.47-3.34c1.1.63 1.98 1.24 1.98 1.37 0 1.3-13.54 30.73-13.95 30.32-.3-.3 7.12-19.36 10.23-26.29 1.56-3.47 1.73-4.06 1.14-4.06-.43 0-8.96 17.73-13.7 28.49-1.61 3.65-3.15 6.87-3.43 7.15-.5.51-.5.51-.32-.26.37-1.57 4.31-12.93 6.12-17.63 2.01-5.24 5.02-12.36 7.41-17.55 1.39-3.02 1.53-3.22 2.02-2.96.29.16 1.4.79 2.5 1.42zm-43.07-.11c-1.71 2.91-7.69 13.9-9.95 18.27-1.4 2.71-2.57 4.91-2.61 4.91-.36 0 4.13-13.34 6.56-19.47l1.79-4.52 1.06-.1c.57-.06 1.69-.12 2.43-.14l1.37-.04zm-5.79-.53c0 .04-1.07 2.18-2.38 4.79-1.31 2.59-3.57 7.43-5.02 10.73-2.91 6.62-4.64 10.26-4.79 10.12-.18-.18 1.2-5.24 2.63-9.63 1.52-4.65 3.32-9.51 4.81-12.98.52-1.2.88-2.31.81-2.48-.12-.31.07-.35 3.24-.57.39-.02.7-.01.7.02zm-4.42.63c-2.14 3.67-3.76 6.75-7.71 14.59-2.63 5.24-4.84 9.48-4.89 9.43-.06-.06 1.37-5.08 3.18-11.19s3.36-11.4 3.45-11.78c.14-.57.35-.71 1.24-.83 2.89-.38 4.88-.47 4.73-.22zm-6.91.65c-.08.18-.94 2.16-1.92 4.41-.98 2.24-3.01 7.49-4.52 11.62-2.42 6.67-3.76 9.96-4.05 9.96-.06 0 .27-1.81.73-4.01 1.34-6.49 3.27-13.01 5.56-18.78 1.39-3.5 1.28-3.4 3.49-3.49.59-.02.81.07.71.29zm-4 .02c0 .04-.85 1.9-1.89 4.15s-2.95 6.73-4.27 10c-1.31 3.27-2.42 5.88-2.48 5.83-.14-.14 2.12-7.33 4.2-13.36 1.03-2.99 1.88-5.61 1.88-5.81s-.23-.37-.49-.37c-.41 0-.89 1.21-3.05 7.73-1.41 4.24-3.31 10.32-4.22 13.48l-1.65 5.75-.79.08c-.43.04-.8.04-.8 0-.01-.04-.17-2.66-.36-5.8l-.34-5.72 1.85-4.62c1.71-4.27 4.95-11.1 4.98-10.5.01.14-.44 1.87-.99 3.83-2.9 10.35-4.77 20.06-3.88 20.06.11 0 .46-1.57.78-3.51s.85-4.77 1.19-6.32c.67-3.04 3.64-14.23 3.83-14.43.07-.07 1.17-.2 2.47-.28 3.42-.26 4.03-.28 4.03-.19zm-9.67 3.43c-.83 1.66-2.11 4.51-2.86 6.37-.76 1.86-1.4 3.34-1.44 3.3-.11-.11.81-4.29 1.89-8.64 1.02-4.11.86-3.9 3.07-4l.84-.04zm-2.34-2.62c0 .07-.45 1.93-1.01 4.15s-1.09 4.52-1.19 5.12c-.1.61-.24 1.04-.31.96s-.32-2.38-.55-5.11c-.42-4.96-.42-4.97.09-5.07.8-.15 2.97-.19 2.97-.05zm86.65 5.15c3.04 2 5.62 3.77 5.72 3.93.12.18-.14.55-.68.97-.48.38-2.35 1.96-4.19 3.55s-3.47 2.87-3.65 2.87c-.3 0-1.97 1.03-3.55 2.2-.51.37-.47.22.31-1.16.49-.87 1.37-2.52 1.95-3.61 1.15-2.2 1.49-2.49.87-.74-1.21 3.43.36 3.32 2.7-.18.73-1.1 1.37-2.04 1.42-2.11.05-.06.26.11.45.37.61.83 1.17.31 1.09-1.02-.14-2.26-1.12-2.22-2.64.1-1.58 2.42-1.66 2.4-.83-.18.94-2.94.97-3.7.17-3.58-.45.07-1.14 1.14-3.37 5.23-1.55 2.84-2.83 5.13-2.86 5.1s.75-2.22 1.73-4.88c1.94-5.26 2.11-6.09 1.21-5.96-.45.06-1.07 1.1-3.18 5.32-1.44 2.89-2.63 5.17-2.64 5.08-.01-.15 3.43-9.35 4.56-12.19.69-1.74.69-2.15-.03-2.04-.44.06-1.18 1.48-4.15 8-3.27 7.15-5.21 11.14-4.91 10.09.48-1.69 5.94-17.16 6.61-18.73l.51-1.2.93.56c.5.32 3.41 2.21 6.45 4.21zm-38.37.2c-.85 2.5-2.04 5.82-2.66 7.4-1.22 3.14-3.49 8.14-3.63 8-.12-.12 1.87-5.9 3.36-9.76 1.66-4.29 4.26-10.39 4.37-10.27.06.05-.59 2.13-1.44 4.63zm-4.93-1.77c-1.38 3.27-5.48 14-6.58 17.25l-1.02 2.99-1.58.15c-.87.08-1.62.11-1.66.06s.2-.54.54-1.07c.34-.54 2.94-5.62 5.79-11.29s5.22-10.26 5.28-10.21c.04.05-.31 1.02-.77 2.12zm-13.86 5.52c-2.41 6.29-5.22 14.42-5.22 15.1 0 .46-.41.57-3.01.82l-1.33.13 1.93-3.88c2.16-4.34 9.62-18.09 9.74-17.96.05.03-.91 2.64-2.11 5.79zm8.16-4.93c-2.56 5.93-6.99 18.14-6.99 19.26 0 .66-.67.91-2.73 1.02-1.02.06-1.87.09-1.87.08 0-.17 6.31-12.14 7.47-14.18 1.78-3.12 4.28-7.15 4.44-7.15.05-.01-.09.43-.32.97zm-25.4 8.86c-2.88 9.68-3.35 11.63-2.84 11.63.6 0 1.89-2.27 6.07-10.71 2.37-4.78 4.34-8.65 4.38-8.61s-.31 1.1-.8 2.38c-2.39 6.26-5.25 16.19-4.91 17.07.25.67.97.36 1.76-.77.39-.56 2.13-4.19 3.86-8.05 3.11-6.95 5.18-11.35 4.86-10.35-.09.28-1.1 3.27-2.24 6.64-1.15 3.37-2.48 7.66-2.96 9.52-.86 3.32-.89 3.39-1.65 3.51-.67.11-10.83.9-11.55.9-.16 0 .1-.78.56-1.72.46-.95 1.78-4.31 2.93-7.47 2.31-6.36 5.14-13.59 5.27-13.46.03.03-1.2 4.3-2.74 9.49zm50.01-5.08c-1.31 2.58-8.04 21.64-9.25 26.21-.5 1.89-.39 2.77.29 2.22.51-.42 2.61-4.59 6.68-13.26 5.43-11.57 5.77-12.28 5.86-12.19.05.06-.5 1.53-1.2 3.27-1.98 4.85-5.22 13.85-6.64 18.45-.7 2.27-1.36 4.19-1.47 4.28-.69.58-3.96 2.81-4.02 2.74-.07-.08-.78-6.92-1.06-10.22-.14-1.69-.11-1.99.22-1.99.44 0 2.63-4.06 7.61-14.1 1.73-3.47 3.19-6.29 3.25-6.23.05.05-.08.43-.27.82zm-54.6 4.08c-1.45 5.01-2.75 10.98-2.9 13.39l-.06.89-1.62.08c-1.25.06-1.59 0-1.48-.26.58-1.41 5.46-13.64 5.87-14.72.7-1.87.81-1.52.19.62zm69.31 7.92c-.81 2.35-1.07 2.81-1.95 3.51l-1.02.8 1.18-2.17c.65-1.2 1.47-2.77 1.84-3.51s.71-1.34.78-1.34c.05.01-.32 1.23-.83 2.71zm-6.71 2.02c-.84 2.35-1.53 4.51-1.53 4.78 0 .63.82.61 1.4-.03.24-.27 1.31-2.13 2.36-4.15s1.84-3.44 1.74-3.16-.57 1.6-1.05 2.9c-.47 1.3-.87 2.59-.87 2.82 0 .35-5.29 4.59-6.87 5.51-.2.11.62-1.68 1.82-3.98 1.19-2.3 2.68-5.3 3.3-6.66.62-1.35 1.15-2.44 1.19-2.4.02.05-.65 2.02-1.49 4.37zm-3.61-1.39c-.57 1.48-1.81 4.84-2.77 7.52-1.47 4.11-1.86 4.95-2.53 5.47-.43.34-.85.56-.92.49s.9-2.43 2.13-5.21c3.26-7.33 4.98-11.08 5.05-11.01.04.04-.4 1.28-.96 2.74zm-16.83 4.2c0 .2-.11.38-.24.38s-.18-.18-.1-.38.19-.38.24-.38.1.18.1.38zm-5.11-.02c0 .05-.18.24-.38.41-.31.25-.38.23-.38-.1 0-.23.17-.41.38-.41.2 0 .38.04.38.1zm-4.34 1.91c-.87.97-1.77 1.84-2.01 1.93-.23.09.22-.5 1.01-1.32s1.5-1.68 1.58-1.93c.09-.26.33-.45.57-.45.29.01-.12.62-1.15 1.77zm-2.99-.1c-.94 1.12-2.43 2.31-3.66 2.93-.35.18.24-.5 1.34-1.52s1.98-2 1.98-2.2c0-.21.27-.36.65-.36h.65zm-4.5.58c-.63.82-1.61 1.74-2.22 2.08-1.4.78-1.1.21.71-1.33.77-.65 1.54-1.4 1.75-1.69.2-.28.49-.52.63-.52.14-.01-.24.64-.87 1.46zm-3.38-.17c-.41.44-1.21 1.14-1.77 1.56-.68.51-.57.37.32-.43.74-.66 1.34-1.36 1.34-1.56 0-.19.2-.36.44-.36.32 0 .25.18-.33.79zm-4.47.68c-.61.66-1.58 1.49-2.15 1.83l-1.03.61 1.34-1.26c.74-.7 1.34-1.45 1.34-1.67 0-.44.36-.66 1.12-.69.38-.03.24.23-.62 1.18zm25.05.6c0 .28-.11.44-.24.36-.14-.09-.18-.31-.1-.51.19-.53.34-.46.34.15zm-44.46.22c-.51.34-1.1.34-.9 0 .08-.14.41-.26.72-.26.46.01.5.06.18.26zm38.33.75c0 .18-1.53.8-1.94.78-.13-.01.1-.28.51-.61.66-.54 1.43-.63 1.43-.17zm29.39 1.94c-.58.77-1.12 1.41-1.19 1.41-.32 0 .74-1.88 1.35-2.41 1.1-.94 1.04-.58-.16 1zm-54.94-1.17c0 .24-1.56 1.3-1.92 1.3-.18 0 1.66-1.5 1.86-1.53.04 0 .06.09.06.23zm18.01.28c.09.15-.08.26-.38.26-.31 0-.47-.11-.38-.26s.24-.26.38-.26c.13 0 .29.1.38.26zm33.44 3.19c-.72 1.28-.98 1.5-.6.51.41-1.07.77-1.66 1.02-1.66.12 0-.06.51-.42 1.15zm3.82-.26c.1.27-.42.76-1.7 1.62-2.58 1.73-2.58 1.73-1.82.58.47-.72.87-1.05 1.26-1.05.31 0 .89-.33 1.3-.73s.76-.75.78-.77c.02-.01.11.15.18.35zm-7.09 5.22c-.09.15-.3.28-.44.28-.16 0-.14-.15.05-.38.34-.42.66-.34.39.1zm-10.73 1.53c-.1.15-.3.28-.44.28-.16 0-.14-.15.05-.38.34-.42.66-.33.39.1z" fill="rgb(0,0,0)" opacity=".9"/></svg>